<svg xmlns="http://www.w3.org/2000/svg" viewBox="0 0 240 240"><defs><style>.a{fill:#d1d3d4;}.b{fill:#f1f2f2;}</style></defs><path class="a" d="M211.65,182.16a34.91,34.91,0,0,1-34.91,34.9v-34.9Z"/><path class="a" d="M176.74,220H173.8V179.22h40.79v2.94A37.89,37.89,0,0,1,176.74,220Zm2.95-34.9V214a32,32,0,0,0,28.88-28.89Z"/><path class="b" d="M189.07,214.82a44.91,44.91,0,0,1-12.33-30.9V28.82a5.88,5.88,0,0,0-5.88-5.88H34.23a5.88,5.88,0,0,0-5.88,5.88V182.16a34.91,34.91,0,0,0,34.91,34.9H177.6a30.43,30.43,0,0,0,11.47-2.24ZM51.47,70.48V56.24a1.47,1.47,0,0,1,1.47-1.47h15.5a1.47,1.47,0,0,1,1.47,1.47V70.48A1.47,1.47,0,0,1,68.44,72H52.94A1.47,1.47,0,0,1,51.47,70.48ZM112.7,115.1a1.47,1.47,0,0,1-1.47,1.47H56.6a1.47,1.47,0,0,1-1.47-1.47V100.87A1.47,1.47,0,0,1,56.6,99.4h54.63a1.47,1.47,0,0,1,1.47,1.47Zm3.66-44.62A1.47,1.47,0,0,1,114.89,72H99.39a1.47,1.47,0,0,1-1.47-1.47V56.24a1.47,1.47,0,0,1,1.47-1.47h15.5a1.47,1.47,0,0,1,1.47,1.47Z"/><path class="a" d="M177.6,220H63.26a37.89,37.89,0,0,1-37.85-37.84V28.82A8.83,8.83,0,0,1,34.23,20H170.86a8.84,8.84,0,0,1,8.83,8.82V183.93a41.74,41.74,0,0,0,11.52,28.86l3,3.13-4,1.62A33.25,33.25,0,0,1,177.6,220ZM34.23,25.88a2.94,2.94,0,0,0-2.94,2.94V182.16a32,32,0,0,0,32,32H177.6a27.5,27.5,0,0,0,6.35-.74,47.62,47.62,0,0,1-10.15-29.45V28.82a2.94,2.94,0,0,0-2.94-2.94Zm77,93.63H56.6a4.42,4.42,0,0,1-4.41-4.41V100.87a4.42,4.42,0,0,1,4.41-4.41h54.63a4.42,4.42,0,0,1,4.41,4.41V115.1A4.42,4.42,0,0,1,111.23,119.51Zm-53.16-5.88h51.69V102.34H58.07Zm56.82-38.74H99.39A4.42,4.42,0,0,1,95,70.48V56.24a4.42,4.42,0,0,1,4.41-4.41h15.5a4.41,4.41,0,0,1,4.41,4.41V70.48A4.41,4.41,0,0,1,114.89,74.89Zm-14-5.88h12.56V57.71H100.86ZM68.44,74.89H52.94a4.42,4.42,0,0,1-4.41-4.41V56.24a4.42,4.42,0,0,1,4.41-4.41h15.5a4.42,4.42,0,0,1,4.41,4.41V70.48A4.42,4.42,0,0,1,68.44,74.89ZM54.41,69H67V57.71H54.41Z"/></svg>