<svg id="e3240b06-2be0-4689-aadf-44984a5d5a54" data-name="Layer 1" xmlns="http://www.w3.org/2000/svg" viewBox="0 0 240 240"><defs><style>.ad976bc5-45c3-4329-9289-b3bb4b32c7ff{fill:#d1d3d4;}.bade4f7d-ece0-4151-a3cd-59e211a8d8fa{fill:#fff;}</style></defs><path class="ad976bc5-45c3-4329-9289-b3bb4b32c7ff" d="M173.83,179.28V220c24.71.41,42.29-17.71,40.7-40.7Z"/><path class="bade4f7d-ece0-4151-a3cd-59e211a8d8fa" d="M208.86,202.38c-11.52,12.13-30.77,5.3-29.21-18.46V28.82A8.82,8.82,0,0,0,170.83,20H34.2a8.82,8.82,0,0,0-8.83,8.82V182.16A37.85,37.85,0,0,0,63.22,220H177.57C197.23,220.07,208.6,203.64,208.86,202.38Z"/><rect class="ad976bc5-45c3-4329-9289-b3bb4b32c7ff" x="55.11" y="99.42" width="57.57" height="17.17" rx="1"/><rect class="ad976bc5-45c3-4329-9289-b3bb4b32c7ff" x="48.51" y="51.85" width="24.32" height="23.05" rx="4.41"/><rect class="ad976bc5-45c3-4329-9289-b3bb4b32c7ff" x="94.96" y="51.85" width="24.32" height="23.05" rx="4.41"/></svg>