<svg xmlns="http://www.w3.org/2000/svg" viewBox="0 0 240 240"><defs><style>.a{fill:#d1d3d4;}.b{fill:#fff;}</style></defs><path class="a" d="M173.83,179.28V220c24.71.41,42.29-17.71,40.7-40.7Z"/><path class="b" d="M208.86,202.38c-11.52,12.13-30.77,5.3-29.21-18.46V28.82A8.82,8.82,0,0,0,170.83,20H34.2a8.82,8.82,0,0,0-8.83,8.82V182.16A37.85,37.85,0,0,0,63.22,220H177.57C197.23,220.07,208.6,203.64,208.86,202.38Z"/><rect class="a" x="55.11" y="99.42" width="57.57" height="17.17" rx="1"/><rect class="a" x="48.51" y="51.85" width="24.32" height="23.05" rx="4.41"/><rect class="a" x="94.96" y="51.85" width="24.32" height="23.05" rx="4.41"/></svg>