<svg id="b3445710-a136-46cb-89f8-80c618c8ee4b" data-name="Layer 1" xmlns="http://www.w3.org/2000/svg" viewBox="0 0 240 240"><defs><style>.ba1765ac-ba03-4b43-bc6d-a927946baed1{fill:#a7a9ac;}.fd8419ec-6395-4382-ade3-030128d6647f{fill:#fff;}.bd62f727-fb5f-4aa4-8437-767b19d7f96b{fill:#939598;}.b0b51b44-10fd-4a78-9380-afb1145bc97a{fill:#bcbec0;}</style></defs><circle class="ba1765ac-ba03-4b43-bc6d-a927946baed1" cx="117.85" cy="205.85" r="14.15"/><rect class="ba1765ac-ba03-4b43-bc6d-a927946baed1" x="107.02" y="30.19" width="21.66" height="27.48" rx="10.55"/><path class="fd8419ec-6395-4382-ade3-030128d6647f" d="M192.3,201.34h0a4.63,4.63,0,0,1-4.63,4.63H48a4.62,4.62,0,0,1-4.62-4.63h0a4.52,4.52,0,0,1,.46-2h0a118.3,118.3,0,0,0,11.76-51.42V109.06a62.23,62.23,0,1,1,124.45,0v38.85a118.17,118.17,0,0,0,11.77,51.42h0A4.66,4.66,0,0,1,192.3,201.34Z"/><path class="bd62f727-fb5f-4aa4-8437-767b19d7f96b" d="M94.38,119.93a17.07,17.07,0,0,1-14-7.29,3,3,0,0,1,4.92-3.44,11,11,0,0,0,18.22-.14,3,3,0,1,1,5,3.36A17,17,0,0,1,94.38,119.93Z"/><path class="bd62f727-fb5f-4aa4-8437-767b19d7f96b" d="M141.19,119.93a17.09,17.09,0,0,1-14-7.29,3,3,0,0,1,4.92-3.44,11,11,0,0,0,18.22-.14,3,3,0,1,1,5,3.36A17,17,0,0,1,141.19,119.93Z"/><path class="bd62f727-fb5f-4aa4-8437-767b19d7f96b" d="M131.62,159.83c0,8.62-6.24,2.42-14.86,2.42s-16.36,6.2-16.36-2.42a15.61,15.61,0,0,1,31.22,0Z"/><path class="ba1765ac-ba03-4b43-bc6d-a927946baed1" d="M188.57,78.49l-19.31,9a1.33,1.33,0,0,1-2.06-.75c-.37-1-2.88-5.59-2.82-6.63-.32,0,4.24-16.84,4.3-17.38-1.42.09-9.66,6.08-10.39,3.15-.17-1.42-4.11-5.93-1.46-6.78l17.91-8.38a1.33,1.33,0,0,1,2.06.75c.34,1.07,3.21,6.19,3.12,7.26.28.21-4,16-4.13,16.63,1.4-.09,10.8-6.59,11.36-3.6C187.37,73.19,191.19,77.65,188.57,78.49Z"/><path class="b0b51b44-10fd-4a78-9380-afb1145bc97a" d="M208.17,35.86c-.83,0-11.74,9.92-12.3,7.77-.36-.6-2.48-3.14-2.57-3.79-.2,0,.59-11,.56-11.35-.91.2-5.21,5-6.08,3.23-.29-.86-3.29-3.19-1.74-4,.49-.16,10.56-8.12,10.87-7.66,1,.52,3,3.63,3.46,4.61.22.17-.58,10.4-.54,10.86.94-.2,5.75-5.43,6.63-3.63C206.77,32.71,209.69,35,208.17,35.86Z"/></svg>